<svg width="21" height="20" viewBox="0 0 21 20" fill="none" xmlns="http://www.w3.org/2000/svg">
<path d="M20.4052 16.7144C20.1436 15.9295 19.6694 15.1376 18.97 14.6768C17.6242 13.7835 16.0562 13.307 14.54 12.7969C14.1743 12.6687 13.8027 12.529 13.4684 12.3303C13.17 12.153 13.058 11.7894 12.9887 11.47C12.9581 11.3011 12.9393 11.1277 12.9296 10.9572C14.029 9.45325 14.7583 6.99882 14.7583 4.98627C14.7583 1.84546 12.9836 0.970184 10.7948 0.970184C8.60553 0.970184 6.83123 1.84416 6.83123 4.98498C6.83123 7.06952 7.61309 9.6266 8.77874 11.1121C8.76811 11.2293 8.75416 11.3466 8.73304 11.4633C8.66359 11.7827 8.55171 12.1395 8.25349 12.3168C7.91886 12.5156 7.54729 12.6417 7.18149 12.7699C5.66534 13.28 4.09738 13.7298 2.75193 14.6231C2.05213 15.0839 1.57816 15.9295 1.31673 16.7144C1.04752 17.5292 0.937419 18.5382 0.954014 19.3559H10.8605H20.7678C20.7846 18.5383 20.6742 17.5292 20.4052 16.7144Z" fill="#404142"/>
</svg>
