<svg width="12" height="12" viewBox="0 0 12 12" fill="none" xmlns="http://www.w3.org/2000/svg">
<path d="M10.4345 4.16055V1.33467C10.4345 0.973218 10.1668 0.677486 9.83967 0.677486H9.24482C8.91765 0.677486 8.64997 0.973218 8.64997 1.33467V2.38616L6.66911 0.414614C6.44306 0.191172 6.09805 0.191172 5.87201 0.414614L0.899041 5.36319C0.696792 5.56035 0.821711 5.93494 1.09534 5.93494H2.10659V10.5352C2.10659 10.8967 2.37427 11.1924 2.70144 11.1924H5.08085V7.90649C5.08085 7.54504 5.34854 7.24931 5.6757 7.24931H6.86541C7.19258 7.24931 7.46026 7.54504 7.46026 7.90649V11.1924H9.83967C10.1668 11.1924 10.4345 10.8967 10.4345 10.5352V5.93494H11.4458C11.7194 5.93494 11.8503 5.56035 11.6421 5.36319L10.4345 4.16055ZM5.08085 4.62058C5.08085 3.89768 5.61622 3.30621 6.27056 3.30621C6.92489 3.30621 7.46026 3.89768 7.46026 4.62058H5.08085Z" fill="#404142"/>
</svg>
