<svg width="20" height="21" viewBox="0 0 20 21" fill="none" xmlns="http://www.w3.org/2000/svg">
<g clip-path="url(#clip0_1_203)">
<path d="M19.0734 11.2651C18.3728 11.9372 17.4428 12.3076 16.4533 12.3076H11.2958V13.3173C11.2958 13.7433 10.9467 14.0926 10.5202 14.0926H9.20206C8.77569 14.0926 8.42669 13.7434 8.42669 13.3173V12.3076H3.26888C2.27955 12.3076 1.3494 11.9372 0.648842 11.2651C0.515734 11.1373 0.393886 11.0016 0.283936 10.8592V17.8974C0.283936 18.6127 0.869117 19.1973 1.58393 19.1973H18.1385C18.8532 19.1973 19.4383 18.6127 19.4383 17.8974V10.8592C19.3282 11.0016 19.2068 11.1373 19.0734 11.2651Z" fill="#404142"/>
<path d="M18.1385 4.76767H1.58393C0.869117 4.76767 0.283936 5.35281 0.283936 6.06759V9.38358C0.409599 9.91395 0.687525 10.4016 1.09916 10.7963C1.67783 11.3515 2.44857 11.6575 3.26888 11.6575H8.42669V10.6481C8.42669 10.2216 8.77569 9.8725 9.20206 9.8725H10.5202C10.9467 9.8725 11.2958 10.2215 11.2958 10.6481V11.6575H16.4533C17.2736 11.6575 18.0445 11.3515 18.623 10.7963C19.0343 10.401 19.3127 9.91377 19.4383 9.38317V6.06755C19.4383 5.35281 18.8533 4.76767 18.1385 4.76767Z" fill="#404142"/>
<path d="M7.5879 3.46766C7.5879 3.43077 7.59796 3.37686 7.64536 3.32976C7.69228 3.28262 7.74611 3.27241 7.78326 3.27241H11.9389C11.9755 3.27241 12.0295 3.28266 12.0765 3.32976C12.1239 3.3769 12.1339 3.43081 12.1339 3.46766V4.11767H13.2386V3.46766C13.2385 3.13504 13.1117 2.80241 12.8581 2.54854C12.6041 2.29456 12.2713 2.16766 11.9388 2.16766H7.78326C7.45056 2.16766 7.11753 2.29456 6.86374 2.54854C6.61013 2.80234 6.48315 3.13504 6.48315 3.46766V4.11767H7.5879V3.46766Z" fill="#404142"/>
<path d="M10.5198 13.4424C10.5881 13.4424 10.6451 13.3853 10.6451 13.3171V12.3075V11.6575V10.6481C10.6451 10.5799 10.5881 10.5224 10.5198 10.5224H9.20159C9.13358 10.5224 9.07593 10.5799 9.07593 10.6481V11.6575V12.3075V13.3171C9.07593 13.3853 9.13358 13.4424 9.20159 13.4424H10.5198Z" fill="#404142"/>
</g>
<defs>
<clipPath id="clip0_1_203">
<rect width="19.1544" height="19.1544" fill="white" transform="translate(0.283936 0.890747)"/>
</clipPath>
</defs>
</svg>
