<svg width="15" height="15" viewBox="0 0 15 15" fill="none" xmlns="http://www.w3.org/2000/svg">
<path d="M13.854 6.77481L7.88017 0.801602C7.71455 0.636595 7.49029 0.543945 7.25651 0.543945C7.02272 0.543945 6.79846 0.636595 6.63285 0.801602L5.39522 2.04151L6.96862 3.6149C7.15425 3.55201 7.3538 3.54245 7.54459 3.5873C7.73538 3.63215 7.90977 3.72961 8.04794 3.86862C8.18611 4.00762 8.28253 4.18259 8.32623 4.37365C8.36994 4.5647 8.35918 4.76419 8.29518 4.94944L9.81043 6.46583C10.0347 6.38785 10.2788 6.38835 10.5027 6.46724C10.7266 6.54613 10.9171 6.69873 11.043 6.90004C11.1689 7.10135 11.2226 7.33944 11.1955 7.5753C11.1683 7.81117 11.0619 8.03082 10.8936 8.19827C10.7963 8.29569 10.6808 8.37298 10.5536 8.42572C10.4265 8.47845 10.2901 8.50559 10.1525 8.50559C10.0148 8.50559 9.87849 8.47845 9.75133 8.42572C9.62416 8.37298 9.50865 8.29569 9.41138 8.19827C9.26562 8.0521 9.16607 7.86629 9.12512 7.66397C9.08417 7.46165 9.10363 7.25176 9.18107 7.06041L7.76216 5.64892V9.36863C7.86249 9.41765 7.95712 9.48435 8.04036 9.56701C8.23559 9.76426 8.3451 10.0306 8.3451 10.3081C8.3451 10.5856 8.23559 10.852 8.04036 11.0492C7.94273 11.1469 7.8268 11.2244 7.6992 11.2773C7.5716 11.3302 7.43482 11.3574 7.2967 11.3574C7.15857 11.3574 7.02179 11.3302 6.89419 11.2773C6.76659 11.2244 6.65066 11.1469 6.55304 11.0492C6.45558 10.9521 6.37826 10.8367 6.3255 10.7096C6.27274 10.5825 6.24558 10.4463 6.24558 10.3087C6.24558 10.1711 6.27274 10.0348 6.3255 9.90777C6.37826 9.78069 6.45558 9.66528 6.55304 9.56815C6.65679 9.46554 6.77366 9.38801 6.89793 9.3367V5.58051C6.76996 5.52819 6.65363 5.45101 6.55568 5.35344C6.45774 5.25587 6.38012 5.13984 6.32731 5.01207C6.27451 4.8843 6.24757 4.74732 6.24805 4.60907C6.24854 4.47082 6.27644 4.33403 6.33014 4.20664L4.7841 2.65319L0.687563 6.74687C0.345519 7.09176 0.345519 7.64986 0.687563 7.99476L6.66192 13.9674C6.74372 14.0493 6.84085 14.1142 6.94776 14.1585C7.05468 14.2028 7.16928 14.2257 7.28501 14.2257C7.40074 14.2257 7.51534 14.2028 7.62226 14.1585C7.72917 14.1142 7.8263 14.0493 7.9081 13.9674L13.854 8.02155C13.936 7.93978 14.0011 7.84263 14.0455 7.73566C14.0899 7.62868 14.1127 7.514 14.1127 7.39818C14.1127 7.28236 14.0899 7.16767 14.0455 7.0607C14.0011 6.95373 13.936 6.85658 13.854 6.77481Z" fill="#414042"/>
</svg>
