<svg width="15" height="15" viewBox="0 0 15 15" fill="none" xmlns="http://www.w3.org/2000/svg">
<path d="M7.27189 0.786224C11.048 0.786224 14.1127 3.92971 14.1127 7.80293C14.1127 10.8903 12.1563 13.5286 9.44728 14.4548C9.10523 14.5249 8.9821 14.3004 8.9821 14.118C8.9821 13.8794 8.99578 13.1216 8.99578 12.1954C8.99578 11.5358 8.77687 11.1148 8.5306 10.8903C10.0493 10.7219 11.65 10.1184 11.65 7.42403C11.65 6.65219 11.3901 6.03472 10.9523 5.54355C11.0207 5.37515 11.2533 4.64541 10.8839 3.69114C10.8839 3.69114 10.3092 3.49467 8.99578 4.40685C8.44851 4.25248 7.87388 4.16828 7.28557 4.16828C6.71094 4.16828 6.12262 4.25248 5.57535 4.40685C4.27559 3.50871 3.70096 3.69114 3.70096 3.69114C3.31787 4.64541 3.56414 5.37515 3.63255 5.54355C3.19474 6.03472 2.93478 6.66622 2.93478 7.42403C2.93478 10.1184 4.52186 10.7219 6.04053 10.8903C5.84899 11.0727 5.67113 11.3815 5.60272 11.8305C5.20595 12.013 4.23455 12.3077 3.61887 11.2552C3.48205 11.0447 3.09896 10.5254 2.56538 10.5394C1.99075 10.5394 2.33279 10.8622 2.56538 11.0026C2.86637 11.171 3.19474 11.7884 3.27683 11.9849C3.41364 12.3778 3.85146 13.1356 5.57535 12.8129C5.57535 13.4023 5.57535 13.9496 5.57535 14.118C5.57535 14.3004 5.45222 14.5109 5.11018 14.4548C2.38751 13.5286 0.43103 10.9043 0.43103 7.80293C0.43103 3.92971 3.49573 0.786224 7.27189 0.786224Z" fill="#414141"/>
</svg>
