<svg width="12" height="12" viewBox="0 0 12 12" fill="none" xmlns="http://www.w3.org/2000/svg">
<g clip-path="url(#clip0_1_172)">
<path d="M11.0756 0.916901H1.46882C1.09831 0.916901 0.799194 1.21673 0.799194 1.58653V11.1919C0.799194 11.5631 1.09903 11.8623 1.46882 11.8623H11.0749C11.4454 11.8623 11.7446 11.5624 11.7446 11.1919V1.58653C11.7453 1.21673 11.4454 0.916901 11.0756 0.916901ZM3.98529 7.64675H3.41846V6.5959H2.48183V7.64675H1.91144V5.13314H2.48183V6.09975H3.41846V5.13314H3.98529V7.64675ZM6.22476 5.61002H5.53871V7.64675H4.9676V5.61002H4.29226V5.13314H6.22476V5.61002ZM8.67626 7.64675L8.63914 6.68514C8.62772 6.38245 8.61701 6.01693 8.61701 5.65214H8.6063C8.52777 5.97267 8.42283 6.33105 8.32574 6.62517L8.01948 7.60677H7.57616L7.30702 6.63302C7.22492 6.33818 7.13926 5.97981 7.08 5.65214H7.07215C7.05716 5.99123 7.04645 6.37959 7.02717 6.69227L6.9822 7.64675H6.45606L6.61669 5.13314H7.37484L7.62113 5.97267C7.69895 6.26323 7.77819 6.57662 7.83387 6.87146H7.84529C7.91668 6.58019 8.00235 6.24823 8.08373 5.96839L8.35287 5.13314H9.09531L9.2331 7.64675H8.67626ZM11.2406 7.64675H9.67V5.13314H10.2411V7.17058H11.2406V7.64675Z" fill="#414042"/>
</g>
<defs>
<clipPath id="clip0_1_172">
<rect width="10.9454" height="10.9454" fill="white" transform="translate(0.799194 0.916901)"/>
</clipPath>
</defs>
</svg>
