<svg width="12" height="12" viewBox="0 0 12 12" fill="none" xmlns="http://www.w3.org/2000/svg">
<path d="M0.799194 0.926422V11.8718H11.7446V0.926422H0.799194ZM6.66278 9.42863C6.66278 10.4941 6.03343 11.0135 5.12237 11.0135C4.29951 11.0135 3.82187 10.5874 3.57951 10.0731L4.41703 9.56618C4.57852 9.85276 4.70117 10.0951 5.05372 10.0951C5.3469 10.0951 5.58779 9.96295 5.58779 9.44866V6.0082H6.66278V9.42863ZM9.09007 10.9891C8.13503 10.9891 7.51789 10.5581 7.21665 9.96295L8.05539 9.47749C8.27527 9.83761 8.56234 10.0775 9.0693 10.0775C9.49539 10.0775 9.74288 9.88892 9.74288 9.59501C9.74288 9.24246 9.48806 9.11761 9.01775 8.91092L8.76073 8.80049C8.0185 8.48484 7.52644 8.08806 7.52644 7.2503C7.52644 6.479 8.11402 5.9156 9.03241 5.9156C9.68644 5.9156 10.1563 6.11888 10.4946 6.71403L9.69231 7.22978C9.51591 6.91388 9.32583 6.79001 9.03119 6.79001C8.72994 6.79001 8.53889 6.98107 8.53889 7.22978C8.53889 7.53835 8.72994 7.6632 9.17069 7.85425L9.42771 7.96444C10.3021 8.33922 10.7944 8.72182 10.7944 9.58084C10.7947 10.5068 10.0673 10.9891 9.09007 10.9891Z" fill="#414042"/>
</svg>
