<svg width="13" height="9" viewBox="0 0 13 9" fill="none" xmlns="http://www.w3.org/2000/svg">
<path d="M12.4191 7.44511C12.4191 7.6863 12.3417 7.91027 12.2256 8.09977L8.34683 4.23213L12.187 1.24311C12.332 1.45846 12.4288 1.69967 12.4288 1.9667V7.44511H12.4191ZM6.26717 4.93847L11.6066 0.777978C11.3841 0.674612 11.1423 0.60569 10.8714 0.60569H1.65322C1.38238 0.60569 1.14056 0.674612 0.918081 0.777978L6.26717 4.93847ZM7.75679 4.68866L6.51866 5.65344C6.44128 5.71373 6.35422 5.73955 6.26717 5.73955C6.18011 5.73955 6.08338 5.71373 6.01567 5.65344L4.77755 4.68866L0.850371 8.60799C1.08252 8.7372 1.36303 8.81472 1.66289 8.81472H10.8811C11.181 8.81472 11.4518 8.7372 11.6936 8.60799L7.75679 4.68866ZM0.357056 1.24311C0.211963 1.45846 0.115234 1.69967 0.115234 1.9667V7.43649C0.115234 7.67768 0.192618 7.90165 0.308692 8.09115L4.18751 4.22353L0.357056 1.24311Z" fill="#404142"/>
</svg>
