<svg width="12" height="12" viewBox="0 0 12 12" fill="none" xmlns="http://www.w3.org/2000/svg">
<path d="M11.7396 8.87315C11.7624 9.05558 11.7055 9.2038 11.5801 9.34062L10.0421 10.8684C9.9737 10.9482 9.88255 11.0166 9.76862 11.0622C9.65469 11.1192 9.55215 11.1534 9.43822 11.1648C9.42682 11.1648 9.40404 11.1649 9.36986 11.1763C9.33568 11.1763 9.27871 11.1876 9.22175 11.1876C9.07363 11.1876 8.83438 11.1649 8.50397 11.1079C8.17357 11.0623 7.77481 10.9368 7.29629 10.7316C6.81778 10.5378 6.2823 10.2413 5.67846 9.84228C5.07461 9.44323 4.43659 8.90735 3.753 8.22326C3.21752 7.6874 2.76179 7.17434 2.4086 6.69548C2.05541 6.20522 1.77058 5.76056 1.55411 5.33871C1.33764 4.92826 1.17814 4.55202 1.0642 4.20998C0.961665 3.87934 0.881912 3.58289 0.847732 3.34346C0.813552 3.10403 0.790765 2.9102 0.802158 2.77339C0.813551 2.63657 0.813551 2.55678 0.813551 2.54538C0.824945 2.43137 0.859124 2.32874 0.916091 2.21473C0.973057 2.10072 1.03002 2.00951 1.10978 1.94111L2.64786 0.401908C2.7504 0.299295 2.87572 0.242271 3.02384 0.242271C3.12637 0.242271 3.21752 0.276495 3.28588 0.333502C3.36563 0.390509 3.43399 0.458921 3.47956 0.550132L4.72142 2.91023C4.78978 3.03565 4.81257 3.17245 4.77839 3.32067C4.74421 3.46889 4.68725 3.59432 4.58471 3.69693L4.01505 4.26701C4.00365 4.27841 3.98087 4.31258 3.96947 4.34679C3.95808 4.38099 3.94669 4.41522 3.94669 4.43802C3.98087 4.59764 4.04922 4.79145 4.15176 4.99668C4.24291 5.1791 4.39102 5.40714 4.58471 5.68077C4.77839 5.943 5.05183 6.25084 5.40502 6.60428C5.75821 6.95773 6.06582 7.23137 6.32787 7.4366C6.60131 7.63042 6.82917 7.77861 7.01146 7.86982C7.19375 7.96103 7.33047 8.01807 7.43301 8.04087L7.58112 8.07508C7.59252 8.07508 7.62669 8.06365 7.66087 8.05225C7.69505 8.04085 7.71784 8.02947 7.74063 8.00667L8.40143 7.33396C8.53815 7.20854 8.69766 7.15156 8.89134 7.15156C9.02806 7.15156 9.1306 7.17436 9.19896 7.21997H9.21035L11.4434 8.54254C11.6143 8.58814 11.7169 8.71353 11.7396 8.87315Z" fill="#404142"/>
</svg>
