<svg width="15" height="13" viewBox="0 0 15 13" fill="none" xmlns="http://www.w3.org/2000/svg">
<path d="M2.86405 8.43131C3.00979 8.48156 3.15657 8.52836 3.30441 8.57171C3.27989 8.6724 3.25728 8.77367 3.23657 8.87552C2.90309 10.5125 3.12114 11.8313 3.86533 12.2655C4.57789 12.6821 5.74649 12.2479 6.92535 11.2099C7.04126 11.1075 7.15479 11.002 7.26595 10.8934C7.34006 10.9656 7.41606 11.0361 7.49397 11.1052C8.72955 12.2151 9.96798 12.6826 10.7113 12.2471C11.4239 11.8296 11.6357 10.5899 11.3355 9.03836C11.3055 8.88492 11.2718 8.73215 11.2343 8.58005C11.4096 8.52971 11.5789 8.47591 11.7408 8.41894C13.1876 7.90828 14.1128 7.10761 14.1128 6.27731C14.1128 5.41939 13.1198 4.55918 11.6111 4.03758C11.4888 3.99557 11.3653 3.95654 11.2406 3.92048C11.2811 3.75765 11.3169 3.59299 11.3481 3.42651C11.6331 1.9017 11.4108 0.691353 10.6996 0.276491C9.96513 -0.151892 8.73297 0.288288 7.53188 1.3499C7.43687 1.4339 7.34186 1.52261 7.24685 1.61602C7.12676 1.49883 7.00325 1.38509 6.87632 1.27481C5.71343 0.262683 4.56507 -0.146137 3.85507 0.269875C3.12114 0.699697 2.88257 2.0001 3.19239 3.58215C3.21614 3.70298 3.24351 3.82631 3.27448 3.95213C3.18783 3.97802 3.10299 4.00478 3.01995 4.0324C1.45232 4.55802 0.431082 5.40789 0.431082 6.27645C0.431652 7.11078 1.38648 7.91662 2.86405 8.43131ZM6.54085 10.764C5.53101 11.6533 4.58701 12.0042 4.15663 11.7534C3.69859 11.4861 3.52045 10.4084 3.80833 8.99491C3.82733 8.90285 3.84785 8.81107 3.86989 8.71959C4.47254 8.85795 5.08366 8.9556 5.69918 9.01189C6.0516 9.52432 6.43793 10.0121 6.85552 10.472C6.75329 10.5721 6.64802 10.6694 6.54085 10.764ZM10.0732 5.56785C9.94945 5.32618 9.82015 5.08749 9.68523 4.85176C9.54785 4.61125 9.40468 4.37428 9.2557 4.14086C9.67923 4.18734 10.1001 4.25581 10.5166 4.34599C10.3958 4.74071 10.247 5.15068 10.0732 5.56785ZM10.0732 6.9583C10.2442 7.36654 10.389 7.76817 10.5078 8.15598C10.1173 8.24431 9.70119 8.31652 9.26739 8.37118C9.41275 8.14218 9.5526 7.90981 9.68694 7.67409C9.82129 7.43837 9.94945 7.19977 10.0732 6.9583ZM9.76248 6.26293C9.58234 6.64211 9.38833 7.01401 9.18046 7.37862C8.97277 7.74304 8.75169 8.09912 8.51721 8.44685C8.11019 8.47792 7.69292 8.49432 7.27137 8.49432C6.84982 8.49432 6.42998 8.47792 6.02325 8.44656C5.79124 8.0996 5.57149 7.74477 5.36399 7.38208C5.15649 7.01938 4.95992 6.64921 4.77427 6.27156C4.95745 5.89103 5.15355 5.5176 5.36256 5.15126C5.56987 4.78684 5.78839 4.42971 6.01812 4.07987C6.42428 4.0511 6.84469 4.03528 7.27222 4.03528C7.69976 4.03528 8.11219 4.0488 8.51094 4.07498C8.74713 4.42386 8.97001 4.78147 9.1796 5.14781C9.38919 5.51414 9.58291 5.88585 9.76248 6.26293ZM4.85665 4.85579C4.71888 5.09708 4.58663 5.34152 4.45989 5.58914C4.28615 5.19151 4.1328 4.78513 4.00043 4.3716C4.42188 4.2758 4.848 4.20234 5.27706 4.15151C5.13226 4.38339 4.99213 4.61815 4.85665 4.85579ZM4.46559 6.95801C4.59176 7.20063 4.72297 7.44038 4.85921 7.67725C4.99222 7.91087 5.13084 8.1416 5.27506 8.36946C4.83869 8.31364 4.41999 8.23942 4.02751 8.14879C4.1537 7.74471 4.29991 7.34728 4.46559 6.95801ZM7.26567 10.0493C6.98106 9.73542 6.71232 9.40722 6.46047 9.06598C6.99917 9.09187 7.53824 9.09187 8.0777 9.06598C7.81177 9.421 7.53957 9.75041 7.26567 10.0493ZM10.4172 11.7358C9.95943 12.004 8.94731 11.6207 7.88046 10.6636C7.81234 10.6023 7.74365 10.5381 7.67525 10.4717C8.09498 10.0119 8.48404 9.52452 8.83985 9.01275C9.45401 8.9569 10.0639 8.86079 10.6657 8.72505C10.7005 8.86622 10.7318 9.00834 10.7598 9.15142C11.0177 10.4815 10.847 11.4841 10.4172 11.7358ZM11.0844 4.49013C11.1984 4.52292 11.311 4.5585 11.4222 4.59686C12.0891 4.82702 12.6401 5.12738 13.0183 5.45449C13.3569 5.74766 13.5285 6.04025 13.5285 6.27731C13.5285 6.78107 12.7857 7.42379 11.547 7.85966C11.3914 7.91432 11.2344 7.96428 11.0761 8.00955C10.8922 7.41278 10.6694 6.82892 10.4092 6.26178C10.6725 5.6868 10.898 5.09497 11.0844 4.49013ZM7.91695 1.79525C8.44795 1.32573 8.9798 0.992862 9.44866 0.825133C9.86993 0.674667 10.2054 0.670351 10.4081 0.788595C10.8396 1.04033 11.0191 2.01247 10.7743 3.31632C10.7452 3.46976 10.712 3.62319 10.6746 3.77663C10.0667 3.64447 9.4507 3.55421 8.83073 3.50649C8.47144 2.99205 8.07917 2.50192 7.65643 2.03922C7.74137 1.95493 7.8283 1.8738 7.91695 1.79525ZM7.24942 2.46329C7.52646 2.76566 7.80294 3.10026 8.07257 3.45988C7.81054 3.44952 7.54376 3.44434 7.27222 3.44434C6.99347 3.44434 6.71757 3.45038 6.44565 3.46276C6.69658 3.11604 6.96485 2.78245 7.24942 2.46329ZM3.7003 1.64076C3.78182 1.19655 3.94571 0.900224 4.14836 0.781692C4.5796 0.529092 5.50165 0.857355 6.49582 1.72304C6.60983 1.82201 6.72384 1.92817 6.83984 2.03951C6.42533 2.50401 6.04225 2.99612 5.69319 3.51253C5.06979 3.56584 4.45078 3.66245 3.84054 3.80166C3.8126 3.68773 3.7879 3.57611 3.76643 3.46678C3.62933 2.76768 3.60967 2.13531 3.7003 1.64076ZM3.20436 4.5937C3.27904 4.56867 3.356 4.5445 3.43409 4.52091C3.62544 5.12049 3.85694 5.70625 4.12698 6.27415C3.86707 6.83447 3.64463 7.41173 3.46117 8.00207C3.32122 7.96093 3.18527 7.91777 3.05444 7.87203C1.78836 7.43127 1.01595 6.77877 1.01595 6.27731C1.01595 5.74219 1.85021 5.04769 3.20436 4.5937Z" fill="#414042"/>
</svg>
